<svg width="100%" height="100%" viewBox="-10 -10 676 100" xmlns="http://www.w3.org/2000/svg">
  <defs>
    <linearGradient id="geminiGradient" x1="0%" y1="0%" x2="100%" y2="100%">
      <stop offset="0%" stop-color="#4285F4">
        <animate attributeName="stop-color" values="#4285F4;#9b72cb;#EA4335;#FBBC04;#4285F4" dur="5s" repeatCount="indefinite" />
      </stop>
      <stop offset="50%" stop-color="#9b72cb">
        <animate attributeName="stop-color" values="#9b72cb;#EA4335;#FBBC04;#4285F4;#9b72cb" dur="5s" repeatCount="indefinite" />
      </stop>
      <stop offset="100%" stop-color="#EA4335">
        <animate attributeName="stop-color" values="#EA4335;#FBBC04;#4285F4;#9b72cb;#EA4335" dur="5s" repeatCount="indefinite" />
      </stop>
    </linearGradient>
  </defs>
  <g class="blocks">
    <rect x="0" y="0" width="12" height="12" fill="url(#geminiGradient)" /><rect x="16" y="0" width="12" height="12" fill="url(#geminiGradient)" /><rect x="32" y="0" width="12" height="12" fill="url(#geminiGradient)" /><rect x="48" y="0" width="12" height="12" fill="url(#geminiGradient)" /><rect x="64" y="0" width="12" height="12" fill="url(#geminiGradient)" /><rect x="32" y="16" width="12" height="12" fill="url(#geminiGradient)" /><rect x="32" y="32" width="12" height="12" fill="url(#geminiGradient)" /><rect x="32" y="48" width="12" height="12" fill="url(#geminiGradient)" /><rect x="32" y="64" width="12" height="12" fill="url(#geminiGradient)" /><rect x="96" y="0" width="12" height="12" fill="url(#geminiGradient)" /><rect x="112" y="0" width="12" height="12" fill="url(#geminiGradient)" /><rect x="128" y="0" width="12" height="12" fill="url(#geminiGradient)" /><rect x="144" y="0" width="12" height="12" fill="url(#geminiGradient)" /><rect x="96" y="16" width="12" height="12" fill="url(#geminiGradient)" /><rect x="160" y="16" width="12" height="12" fill="url(#geminiGradient)" /><rect x="96" y="32" width="12" height="12" fill="url(#geminiGradient)" /><rect x="112" y="32" width="12" height="12" fill="url(#geminiGradient)" /><rect x="128" y="32" width="12" height="12" fill="url(#geminiGradient)" /><rect x="144" y="32" width="12" height="12" fill="url(#geminiGradient)" /><rect x="96" y="48" width="12" height="12" fill="url(#geminiGradient)" /><rect x="144" y="48" width="12" height="12" fill="url(#geminiGradient)" /><rect x="96" y="64" width="12" height="12" fill="url(#geminiGradient)" /><rect x="160" y="64" width="12" height="12" fill="url(#geminiGradient)" /><rect x="208" y="0" width="12" height="12" fill="url(#geminiGradient)" /><rect x="224" y="0" width="12" height="12" fill="url(#geminiGradient)" /><rect x="240" y="0" width="12" height="12" fill="url(#geminiGradient)" /><rect x="192" y="16" width="12" height="12" fill="url(#geminiGradient)" /><rect x="256" y="16" width="12" height="12" fill="url(#geminiGradient)" /><rect x="192" y="32" width="12" height="12" fill="url(#geminiGradient)" /><rect x="208" y="32" width="12" height="12" fill="url(#geminiGradient)" /><rect x="224" y="32" width="12" height="12" fill="url(#geminiGradient)" /><rect x="240" y="32" width="12" height="12" fill="url(#geminiGradient)" /><rect x="256" y="32" width="12" height="12" fill="url(#geminiGradient)" /><rect x="192" y="48" width="12" height="12" fill="url(#geminiGradient)" /><rect x="256" y="48" width="12" height="12" fill="url(#geminiGradient)" /><rect x="192" y="64" width="12" height="12" fill="url(#geminiGradient)" /><rect x="256" y="64" width="12" height="12" fill="url(#geminiGradient)" /><rect x="304" y="0" width="12" height="12" fill="url(#geminiGradient)" /><rect x="320" y="0" width="12" height="12" fill="url(#geminiGradient)" /><rect x="336" y="0" width="12" height="12" fill="url(#geminiGradient)" /><rect x="352" y="0" width="12" height="12" fill="url(#geminiGradient)" /><rect x="288" y="16" width="12" height="12" fill="url(#geminiGradient)" /><rect x="288" y="32" width="12" height="12" fill="url(#geminiGradient)" /><rect x="288" y="48" width="12" height="12" fill="url(#geminiGradient)" /><rect x="304" y="64" width="12" height="12" fill="url(#geminiGradient)" /><rect x="320" y="64" width="12" height="12" fill="url(#geminiGradient)" /><rect x="336" y="64" width="12" height="12" fill="url(#geminiGradient)" /><rect x="352" y="64" width="12" height="12" fill="url(#geminiGradient)" /><rect x="384" y="0" width="12" height="12" fill="url(#geminiGradient)" /><rect x="448" y="0" width="12" height="12" fill="url(#geminiGradient)" /><rect x="384" y="16" width="12" height="12" fill="url(#geminiGradient)" /><rect x="432" y="16" width="12" height="12" fill="url(#geminiGradient)" /><rect x="384" y="32" width="12" height="12" fill="url(#geminiGradient)" /><rect x="400" y="32" width="12" height="12" fill="url(#geminiGradient)" /><rect x="416" y="32" width="12" height="12" fill="url(#geminiGradient)" /><rect x="384" y="48" width="12" height="12" fill="url(#geminiGradient)" /><rect x="432" y="48" width="12" height="12" fill="url(#geminiGradient)" /><rect x="384" y="64" width="12" height="12" fill="url(#geminiGradient)" /><rect x="448" y="64" width="12" height="12" fill="url(#geminiGradient)" /><rect x="480" y="0" width="12" height="12" fill="url(#geminiGradient)" /><rect x="496" y="0" width="12" height="12" fill="url(#geminiGradient)" /><rect x="512" y="0" width="12" height="12" fill="url(#geminiGradient)" /><rect x="528" y="0" width="12" height="12" fill="url(#geminiGradient)" /><rect x="544" y="0" width="12" height="12" fill="url(#geminiGradient)" /><rect x="480" y="16" width="12" height="12" fill="url(#geminiGradient)" /><rect x="480" y="32" width="12" height="12" fill="url(#geminiGradient)" /><rect x="496" y="32" width="12" height="12" fill="url(#geminiGradient)" /><rect x="512" y="32" width="12" height="12" fill="url(#geminiGradient)" /><rect x="528" y="32" width="12" height="12" fill="url(#geminiGradient)" /><rect x="480" y="48" width="12" height="12" fill="url(#geminiGradient)" /><rect x="480" y="64" width="12" height="12" fill="url(#geminiGradient)" /><rect x="496" y="64" width="12" height="12" fill="url(#geminiGradient)" /><rect x="512" y="64" width="12" height="12" fill="url(#geminiGradient)" /><rect x="528" y="64" width="12" height="12" fill="url(#geminiGradient)" /><rect x="544" y="64" width="12" height="12" fill="url(#geminiGradient)" /><rect x="576" y="0" width="12" height="12" fill="url(#geminiGradient)" /><rect x="592" y="0" width="12" height="12" fill="url(#geminiGradient)" /><rect x="608" y="0" width="12" height="12" fill="url(#geminiGradient)" /><rect x="624" y="0" width="12" height="12" fill="url(#geminiGradient)" /><rect x="576" y="16" width="12" height="12" fill="url(#geminiGradient)" /><rect x="640" y="16" width="12" height="12" fill="url(#geminiGradient)" /><rect x="576" y="32" width="12" height="12" fill="url(#geminiGradient)" /><rect x="592" y="32" width="12" height="12" fill="url(#geminiGradient)" /><rect x="608" y="32" width="12" height="12" fill="url(#geminiGradient)" /><rect x="624" y="32" width="12" height="12" fill="url(#geminiGradient)" /><rect x="576" y="48" width="12" height="12" fill="url(#geminiGradient)" /><rect x="624" y="48" width="12" height="12" fill="url(#geminiGradient)" /><rect x="576" y="64" width="12" height="12" fill="url(#geminiGradient)" /><rect x="640" y="64" width="12" height="12" fill="url(#geminiGradient)" />
  </g>
</svg>